<?xml version="1.0" encoding="UTF-8"?>
<!-- Generated by Pixelmator Pro 3.2.3 -->
<svg width="64" height="64" viewBox="0 0 64 64" xmlns="http://www.w3.org/2000/svg" xmlns:xlink="http://www.w3.org/1999/xlink">
    <path id="Path" fill="#ffffff" stroke="none" d="M -0 18.645786 C -0 8.546898 8.187843 0.360119 18.288 0.360119 L 45.621704 0.360119 C 55.721859 0.360119 63.909702 8.546898 63.909702 18.645786 L 63.909702 45.976074 C 63.909702 56.07497 55.721859 64.261787 45.621704 64.261787 L 18.288 64.261787 C 8.187843 64.261787 -0 56.07497 -0 45.976074 L -0 18.645786 Z"/>
    <mask id="mask1" maskUnits="userSpaceOnUse" maskContentUnits="userSpaceOnUse" mask-type="alpha">
        <path id="path1" fill="#ffffff" stroke="none" d="M -0 18.645786 C -0 8.546898 8.187843 0.360119 18.288 0.360119 L 45.621704 0.360119 C 55.721859 0.360119 63.909702 8.546898 63.909702 18.645786 L 63.909702 45.976074 C 63.909702 56.07497 55.721859 64.261787 45.621704 64.261787 L 18.288 64.261787 C 8.187843 64.261787 -0 56.07497 -0 45.976074 L -0 18.645786 Z"/>
    </mask>
    <g id="Untitled-layer" mask="url(#mask1)">
        <filter id="filter1" x="0" y="0" width="64" height="64" filterUnits="userSpaceOnUse" primitiveUnits="userSpaceOnUse" color-interpolation-filters="sRGB">
            <feGaussianBlur stdDeviation="12.191238"/>
        </filter>
        <g id="Group" filter="url(#filter1)">
            <path id="path2" fill="#8bc540" stroke="none" d="M 80.951828 50.312077 C 80.951828 67.804916 66.76931 81.98568 49.274273 81.98568 C 31.77924 81.98568 17.596714 67.804916 17.596714 50.312077 C 17.596714 32.819229 31.77924 18.638474 49.274273 18.638474 C 66.76931 18.638474 80.951828 32.819229 80.951828 50.312077 Z"/>
            <path id="path3" fill="#00aaff" stroke="none" d="M 36.309452 13.187809 C 36.309452 27.918682 24.366224 39.86042 9.633508 39.86042 C -5.099208 39.86042 -17.042435 27.918682 -17.042435 13.187809 C -17.042435 -1.54306 -5.099208 -13.484802 9.633508 -13.484802 C 24.366224 -13.484802 36.309452 -1.54306 36.309452 13.187809 Z"/>
            <path id="path4" fill="#61ff97" stroke="none" d="M 30.278605 49.114822 C 30.278605 57.324188 23.622761 63.979202 15.412364 63.979202 C 7.201967 63.979202 0.546125 57.324188 0.546125 49.114822 C 0.546125 40.905449 7.201967 34.250443 15.412364 34.250443 C 23.622761 34.250443 30.278605 40.905449 30.278605 49.114822 Z"/>
            <path id="path5" fill="#40b3e0" stroke="none" d="M 77.634544 11.501408 C 77.634544 25.427647 66.343689 36.717106 52.415695 36.717106 C 38.487713 36.717106 27.196846 25.427647 27.196846 11.501408 C 27.196846 -2.424835 38.487713 -13.714287 52.415695 -13.714287 C 66.343689 -13.714287 77.634544 -2.424835 77.634544 11.501408 Z"/>
        </g>
    </g>
    <path id="Path-copy" fill="#16171b" stroke="none" d="M 24.997694 43.334824 C 25.855848 43.334824 26.648886 43.159332 27.37701 42.808342 C 28.105032 42.457359 28.703135 41.976364 29.171207 41.365356 C 29.63917 40.741371 29.905771 40.03286 29.970779 39.239929 L 33.403072 39.239929 C 33.338058 40.4879 32.915585 41.651337 32.135418 42.730247 C 31.368351 43.796295 30.36075 44.660778 29.112625 45.3237 C 27.8645 45.973747 26.492895 46.298668 24.997694 46.298668 C 23.411528 46.298668 22.026939 46.019234 20.843828 45.460251 C 19.673695 44.901272 18.698605 44.1343 17.918552 43.159332 C 17.151484 42.184361 16.572908 41.066292 16.182827 39.805344 C 15.80584 38.531418 15.617337 37.18594 15.617337 35.76902 L 15.617337 34.95002 C 15.617337 33.532997 15.80584 32.194061 16.182827 30.933109 C 16.572908 29.659073 17.151484 28.534683 17.918552 27.559711 C 18.698605 26.584743 19.673695 25.817772 20.843828 25.258682 C 22.026939 24.699699 23.411528 24.420265 24.997694 24.420265 C 26.648886 24.420265 28.092047 24.75827 29.327198 25.434284 C 30.562338 26.097206 31.530884 27.007168 32.232937 28.164173 C 32.948086 29.30809 33.338058 30.608086 33.403072 32.064049 L 29.970779 32.064049 C 29.905771 31.193134 29.658697 30.406635 29.22967 29.704666 C 28.813629 29.00259 28.241606 28.443607 27.513474 28.027618 C 26.798435 27.598652 25.959808 27.384224 24.997694 27.384224 C 23.892574 27.384224 22.963083 27.605194 22.209 28.047142 C 21.467892 28.476112 20.876331 29.061157 20.43433 29.802177 C 20.005194 30.530106 19.693222 31.34256 19.498177 32.239544 C 19.316116 33.12355 19.22514 34.026966 19.22514 34.95002 L 19.22514 35.76902 C 19.22514 36.691963 19.316116 37.601929 19.498177 38.498913 C 19.680237 39.395897 19.985777 40.208351 20.414803 40.93639 C 20.856804 41.664318 21.448364 42.249367 22.189472 42.691315 C 22.943556 43.120281 23.879599 43.334824 24.997694 43.334824 Z M 43.795456 45.908745 L 38.139519 45.908745 L 38.139519 22.938347 C 38.139519 21.339279 38.452377 19.993912 39.075882 18.901917 C 39.712708 17.796932 40.603588 16.964954 41.747429 16.405975 C 42.904579 15.834015 44.276962 15.547924 45.862362 15.547924 C 46.382683 15.547924 46.883049 15.586971 47.364552 15.664955 C 47.84494 15.729961 48.313122 15.814491 48.768002 15.918434 L 48.710308 20.149883 C 48.462894 20.084877 48.203289 20.039394 47.930363 20.013329 C 47.656338 19.98737 47.337925 19.974388 46.974022 19.974388 C 46.298363 19.974388 45.719246 20.091309 45.238857 20.325371 C 44.770657 20.546349 44.413425 20.877808 44.166012 21.319862 C 43.918613 21.761814 43.795456 22.301273 43.795456 22.938347 Z M 48.008015 24.810299 L 48.008015 28.788158 L 34.999786 28.788158 L 34.999786 24.810299 Z"/>
</svg>
