<svg width="275" height="73" viewBox="0 0 275 73" fill="none" xmlns="http://www.w3.org/2000/svg">
<path d="M81.7028 41.7119C82.4762 41.7119 83.191 41.5537 83.8473 41.2373C84.5035 40.9209 85.0426 40.4873 85.4645 39.9365C85.8864 39.374 86.1266 38.7354 86.1852 38.0205H89.2789C89.2203 39.1455 88.8395 40.1943 88.1364 41.167C87.4449 42.1279 86.5367 42.9072 85.4117 43.5049C84.2867 44.0908 83.0504 44.3838 81.7028 44.3838C80.2731 44.3838 79.025 44.1318 77.9586 43.6279C76.9039 43.124 76.025 42.4326 75.3219 41.5537C74.6305 40.6748 74.109 39.667 73.7574 38.5303C73.4176 37.3818 73.2477 36.1689 73.2477 34.8916V34.1533C73.2477 32.876 73.4176 31.6689 73.7574 30.5322C74.109 29.3838 74.6305 28.3701 75.3219 27.4912C76.025 26.6123 76.9039 25.9209 77.9586 25.417C79.025 24.9131 80.2731 24.6611 81.7028 24.6611C83.191 24.6611 84.4918 24.9658 85.6051 25.5752C86.7184 26.1729 87.5914 26.9932 88.2242 28.0361C88.8688 29.0674 89.2203 30.2393 89.2789 31.5518H86.1852C86.1266 30.7666 85.9039 30.0576 85.5172 29.4248C85.1422 28.792 84.6266 28.2881 83.9703 27.9131C83.3258 27.5264 82.5699 27.333 81.7028 27.333C80.7067 27.333 79.8688 27.5322 79.1891 27.9307C78.5211 28.3174 77.9879 28.8447 77.5895 29.5127C77.2028 30.1689 76.9215 30.9014 76.7457 31.71C76.5817 32.5068 76.4996 33.3213 76.4996 34.1533V34.8916C76.4996 35.7236 76.5817 36.5439 76.7457 37.3525C76.9098 38.1611 77.1852 38.8936 77.5719 39.5498C77.9703 40.2061 78.5035 40.7334 79.1715 41.1318C79.8512 41.5186 80.6949 41.7119 81.7028 41.7119ZM96.1871 28.001V44.0322H92.9352V25.0127H96.0992L96.1871 28.001ZM102.129 24.9072L102.111 27.9307C101.841 27.8721 101.584 27.8369 101.338 27.8252C101.103 27.8018 100.834 27.79 100.529 27.79C99.7789 27.79 99.1168 27.9072 98.5426 28.1416C97.9684 28.376 97.4821 28.7041 97.0836 29.126C96.6852 29.5479 96.3688 30.0518 96.1344 30.6377C95.9117 31.2119 95.7653 31.8447 95.6949 32.5361L94.7809 33.0635C94.7809 31.915 94.8922 30.8369 95.1149 29.8291C95.3492 28.8213 95.7067 27.9307 96.1871 27.1572C96.6676 26.3721 97.277 25.7627 98.0153 25.3291C98.7653 24.8838 99.6559 24.6611 100.687 24.6611C100.922 24.6611 101.191 24.6904 101.496 24.749C101.8 24.7959 102.011 24.8486 102.129 24.9072ZM103.922 34.7334V34.3291C103.922 32.958 104.121 31.6865 104.519 30.5146C104.918 29.3311 105.492 28.3057 106.242 27.4385C106.992 26.5596 107.9 25.8799 108.966 25.3994C110.033 24.9072 111.228 24.6611 112.552 24.6611C113.888 24.6611 115.089 24.9072 116.156 25.3994C117.234 25.8799 118.148 26.5596 118.898 27.4385C119.66 28.3057 120.24 29.3311 120.638 30.5146C121.037 31.6865 121.236 32.958 121.236 34.3291V34.7334C121.236 36.1045 121.037 37.376 120.638 38.5479C120.24 39.7197 119.66 40.7451 118.898 41.624C118.148 42.4912 117.24 43.1709 116.173 43.6631C115.119 44.1436 113.923 44.3838 112.588 44.3838C111.252 44.3838 110.05 44.1436 108.984 43.6631C107.918 43.1709 107.004 42.4912 106.242 41.624C105.492 40.7451 104.918 39.7197 104.519 38.5479C104.121 37.376 103.922 36.1045 103.922 34.7334ZM107.173 34.3291V34.7334C107.173 35.6826 107.285 36.5791 107.507 37.4229C107.73 38.2549 108.064 38.9932 108.509 39.6377C108.966 40.2822 109.535 40.792 110.214 41.167C110.894 41.5303 111.685 41.7119 112.588 41.7119C113.478 41.7119 114.257 41.5303 114.925 41.167C115.605 40.792 116.168 40.2822 116.613 39.6377C117.058 38.9932 117.392 38.2549 117.615 37.4229C117.849 36.5791 117.966 35.6826 117.966 34.7334V34.3291C117.966 33.3916 117.849 32.5068 117.615 31.6748C117.392 30.8311 117.052 30.0869 116.595 29.4424C116.15 28.7861 115.588 28.2705 114.908 27.8955C114.24 27.5205 113.455 27.333 112.552 27.333C111.662 27.333 110.877 27.5205 110.197 27.8955C109.529 28.2705 108.966 28.7861 108.509 29.4424C108.064 30.0869 107.73 30.8311 107.507 31.6748C107.285 32.5068 107.173 33.3916 107.173 34.3291ZM130.13 40.6572L135.017 25.0127H137.162L136.74 28.124L131.765 44.0322H129.673L130.13 40.6572ZM126.843 25.0127L131.009 40.833L131.308 44.0322H129.111L123.591 25.0127H126.843ZM141.838 40.71L145.81 25.0127H149.045L143.525 44.0322H141.345L141.838 40.71ZM137.636 25.0127L142.418 40.3936L142.963 44.0322H140.888L135.773 28.0889L135.351 25.0127H137.636ZM164.373 40.3408V17.0322H167.642V44.0322H164.654L164.373 40.3408ZM151.576 34.7334V34.3643C151.576 32.9111 151.752 31.5928 152.103 30.4092C152.466 29.2139 152.976 28.1885 153.632 27.333C154.3 26.4775 155.091 25.8213 156.005 25.3643C156.931 24.8955 157.963 24.6611 159.099 24.6611C160.295 24.6611 161.338 24.8721 162.228 25.2939C163.13 25.7041 163.892 26.3076 164.513 27.1045C165.146 27.8896 165.644 28.8389 166.007 29.9521C166.371 31.0654 166.623 32.3252 166.763 33.7314V35.3486C166.634 36.7432 166.382 37.9971 166.007 39.1104C165.644 40.2236 165.146 41.1729 164.513 41.958C163.892 42.7432 163.13 43.3467 162.228 43.7686C161.326 44.1787 160.271 44.3838 159.064 44.3838C157.951 44.3838 156.931 44.1436 156.005 43.6631C155.091 43.1826 154.3 42.5088 153.632 41.6416C152.976 40.7744 152.466 39.7549 152.103 38.583C151.752 37.3994 151.576 36.1162 151.576 34.7334ZM154.845 34.3643V34.7334C154.845 35.6826 154.939 36.5732 155.127 37.4053C155.326 38.2373 155.63 38.9697 156.041 39.6025C156.451 40.2354 156.972 40.7334 157.605 41.0967C158.238 41.4482 158.994 41.624 159.873 41.624C160.951 41.624 161.836 41.3955 162.527 40.9385C163.23 40.4814 163.793 39.8779 164.214 39.1279C164.636 38.3779 164.964 37.5635 165.199 36.6846V32.4482C165.058 31.8037 164.853 31.1826 164.584 30.585C164.326 29.9756 163.986 29.4365 163.564 28.9678C163.154 28.4873 162.644 28.1064 162.035 27.8252C161.437 27.5439 160.728 27.4033 159.908 27.4033C159.017 27.4033 158.25 27.5908 157.605 27.9658C156.972 28.3291 156.451 28.833 156.041 29.4775C155.63 30.1104 155.326 30.8486 155.127 31.6924C154.939 32.5244 154.845 33.415 154.845 34.3643ZM178.646 44.0322H173.548V23.3252C173.548 21.8838 173.83 20.6709 174.392 19.6865C174.966 18.6904 175.769 17.9404 176.8 17.4365C177.843 16.9209 179.08 16.6631 180.509 16.6631C180.978 16.6631 181.429 16.6982 181.863 16.7686C182.297 16.8271 182.718 16.9033 183.129 16.9971L183.076 20.8115C182.853 20.7529 182.619 20.7119 182.373 20.6885C182.127 20.665 181.839 20.6533 181.511 20.6533C180.902 20.6533 180.38 20.7588 179.947 20.9697C179.525 21.1689 179.203 21.4678 178.98 21.8662C178.757 22.2646 178.646 22.751 178.646 23.3252V44.0322ZM182.443 25.0127V28.5986H170.718V25.0127H182.443ZM184.289 34.7158V34.3467C184.289 32.9521 184.488 31.6689 184.886 30.4971C185.285 29.3135 185.865 28.2881 186.627 27.4209C187.388 26.5537 188.326 25.8799 189.439 25.3994C190.552 24.9072 191.83 24.6611 193.271 24.6611C194.713 24.6611 195.996 24.9072 197.121 25.3994C198.246 25.8799 199.189 26.5537 199.951 27.4209C200.724 28.2881 201.31 29.3135 201.709 30.4971C202.107 31.6689 202.306 32.9521 202.306 34.3467V34.7158C202.306 36.0986 202.107 37.3818 201.709 38.5654C201.31 39.7373 200.724 40.7627 199.951 41.6416C199.189 42.5088 198.252 43.1826 197.138 43.6631C196.025 44.1436 194.748 44.3838 193.306 44.3838C191.865 44.3838 190.582 44.1436 189.457 43.6631C188.343 43.1826 187.4 42.5088 186.627 41.6416C185.865 40.7627 185.285 39.7373 184.886 38.5654C184.488 37.3818 184.289 36.0986 184.289 34.7158ZM189.351 34.3467V34.7158C189.351 35.5127 189.422 36.2568 189.562 36.9482C189.703 37.6396 189.925 38.249 190.23 38.7764C190.547 39.292 190.957 39.6963 191.461 39.9893C191.964 40.2822 192.58 40.4287 193.306 40.4287C194.009 40.4287 194.613 40.2822 195.117 39.9893C195.621 39.6963 196.025 39.292 196.33 38.7764C196.634 38.249 196.857 37.6396 196.998 36.9482C197.15 36.2568 197.226 35.5127 197.226 34.7158V34.3467C197.226 33.5732 197.15 32.8467 196.998 32.167C196.857 31.4756 196.629 30.8662 196.312 30.3389C196.007 29.7998 195.603 29.3779 195.099 29.0732C194.595 28.7686 193.986 28.6162 193.271 28.6162C192.556 28.6162 191.947 28.7686 191.443 29.0732C190.951 29.3779 190.547 29.7998 190.23 30.3389C189.925 30.8662 189.703 31.4756 189.562 32.167C189.422 32.8467 189.351 33.5732 189.351 34.3467ZM210.48 29.1611V44.0322H205.418V25.0127H210.181L210.48 29.1611ZM216.211 24.8896L216.123 29.583C215.877 29.5479 215.578 29.5186 215.226 29.4951C214.886 29.46 214.576 29.4424 214.295 29.4424C213.58 29.4424 212.959 29.5361 212.431 29.7236C211.916 29.8994 211.482 30.1631 211.13 30.5146C210.791 30.8662 210.533 31.2939 210.357 31.7979C210.193 32.3018 210.099 32.876 210.076 33.5205L209.056 33.2041C209.056 31.9736 209.179 30.8428 209.425 29.8115C209.672 28.7686 210.029 27.8604 210.498 27.0869C210.978 26.3135 211.564 25.7158 212.255 25.2939C212.947 24.8721 213.738 24.6611 214.629 24.6611C214.91 24.6611 215.197 24.6846 215.49 24.7314C215.783 24.7666 216.023 24.8193 216.211 24.8896ZM226.107 40.4287C226.728 40.4287 227.279 40.3115 227.759 40.0771C228.24 39.8311 228.615 39.4912 228.884 39.0576C229.166 38.6123 229.312 38.0908 229.324 37.4932H234.088C234.076 38.8291 233.718 40.0186 233.015 41.0615C232.312 42.0928 231.369 42.9072 230.185 43.5049C229.002 44.0908 227.677 44.3838 226.213 44.3838C224.736 44.3838 223.447 44.1377 222.345 43.6455C221.255 43.1533 220.347 42.4736 219.621 41.6064C218.894 40.7275 218.349 39.708 217.986 38.5479C217.623 37.376 217.441 36.1221 217.441 34.7861V34.2764C217.441 32.9287 217.623 31.6748 217.986 30.5146C218.349 29.3428 218.894 28.3232 219.621 27.4561C220.347 26.5771 221.255 25.8916 222.345 25.3994C223.435 24.9072 224.713 24.6611 226.177 24.6611C227.736 24.6611 229.101 24.96 230.273 25.5576C231.457 26.1553 232.382 27.0107 233.05 28.124C233.73 29.2256 234.076 30.5322 234.088 32.0439H229.324C229.312 31.4111 229.177 30.8369 228.92 30.3213C228.673 29.8057 228.31 29.3955 227.83 29.0908C227.361 28.7744 226.781 28.6162 226.089 28.6162C225.351 28.6162 224.748 28.7744 224.279 29.0908C223.81 29.3955 223.447 29.8174 223.189 30.3564C222.931 30.8838 222.75 31.4873 222.644 32.167C222.55 32.835 222.504 33.5381 222.504 34.2764V34.7861C222.504 35.5244 222.55 36.2334 222.644 36.9131C222.738 37.5928 222.914 38.1963 223.172 38.7236C223.441 39.251 223.81 39.667 224.279 39.9717C224.748 40.2764 225.357 40.4287 226.107 40.4287ZM245.777 44.3838C244.3 44.3838 242.976 44.1494 241.804 43.6807C240.632 43.2002 239.636 42.5381 238.816 41.6943C238.007 40.8506 237.386 39.8721 236.953 38.7588C236.519 37.6338 236.302 36.4385 236.302 35.1729V34.4697C236.302 33.0283 236.507 31.71 236.918 30.5146C237.328 29.3193 237.914 28.2822 238.675 27.4033C239.449 26.5244 240.386 25.8506 241.488 25.3818C242.589 24.9014 243.832 24.6611 245.214 24.6611C246.562 24.6611 247.757 24.8838 248.8 25.3291C249.843 25.7744 250.716 26.4072 251.42 27.2275C252.134 28.0479 252.673 29.0322 253.037 30.1807C253.4 31.3174 253.582 32.583 253.582 33.9775V36.0869H238.464V32.7119H248.607V32.3252C248.607 31.6221 248.478 30.9951 248.22 30.4443C247.974 29.8818 247.599 29.4365 247.095 29.1084C246.591 28.7803 245.947 28.6162 245.162 28.6162C244.494 28.6162 243.92 28.7627 243.439 29.0557C242.959 29.3486 242.566 29.7588 242.261 30.2861C241.968 30.8135 241.746 31.4346 241.593 32.1494C241.453 32.8525 241.382 33.626 241.382 34.4697V35.1729C241.382 35.9346 241.488 36.6377 241.699 37.2822C241.922 37.9268 242.232 38.4834 242.63 38.9521C243.041 39.4209 243.533 39.7842 244.107 40.042C244.693 40.2998 245.355 40.4287 246.093 40.4287C247.007 40.4287 247.857 40.2529 248.642 39.9014C249.439 39.5381 250.125 38.9932 250.699 38.2666L253.16 40.9385C252.761 41.5127 252.216 42.0635 251.525 42.5908C250.845 43.1182 250.025 43.5518 249.064 43.8916C248.103 44.2197 247.007 44.3838 245.777 44.3838Z" fill="#16171B"/>
<g opacity="0.5" filter="url(#filter0_f_72_226)">
<mask id="mask0_72_226" style="mask-type:alpha" maskUnits="userSpaceOnUse" x="17" y="17" width="39" height="39">
<path d="M17.0968 29.3227C17.0968 22.6953 22.4694 17.3228 29.0968 17.3228H43.5377C50.1651 17.3228 55.5377 22.6953 55.5377 29.3228V43.7636C55.5377 50.391 50.1651 55.7636 43.5377 55.7636H29.0968C22.4694 55.7636 17.0968 50.391 17.0968 43.7636V29.3227Z" fill="#C4C4C4"/>
</mask>
<g mask="url(#mask0_72_226)">
<g filter="url(#filter1_f_72_226)">
<circle cx="46.7348" cy="47.3715" r="19.0537" fill="#8BC540"/>
<circle cx="22.8913" cy="25.0389" r="16.0452" fill="#00AAFF"/>
<circle cx="26.3671" cy="46.6513" r="8.94186" fill="#61FF97"/>
<circle cx="45.0741" cy="27.5744" r="12.5353" fill="#40B3E0"/>
</g>
</g>
</g>
<path d="M15 20.2363C15 13.6089 20.3726 8.23633 27 8.23633H44.9355C51.5629 8.23633 56.9355 13.6089 56.9355 20.2363V38.1718C56.9355 44.7992 51.5629 50.1718 44.9355 50.1718H27C20.3726 50.1718 15 44.7992 15 38.1718V20.2363Z" fill="white"/>
<mask id="mask1_72_226" style="mask-type:alpha" maskUnits="userSpaceOnUse" x="15" y="8" width="42" height="43">
<path d="M15 20.2363C15 13.6089 20.3726 8.23633 27 8.23633H44.9355C51.5629 8.23633 56.9355 13.6089 56.9355 20.2363V38.1718C56.9355 44.7992 51.5629 50.1718 44.9355 50.1718H27C20.3726 50.1718 15 44.7992 15 38.1718V20.2363Z" fill="#C4C4C4"/>
</mask>
<g mask="url(#mask1_72_226)">
<g filter="url(#filter2_f_72_226)">
<circle cx="47.3323" cy="41.0173" r="20.7858" fill="#8BC540"/>
<circle cx="21.3211" cy="16.6542" r="17.5039" fill="#00AAFF"/>
<circle cx="25.1129" cy="40.2313" r="9.75475" fill="#61FF97"/>
<circle cx="45.5206" cy="19.4205" r="13.6749" fill="#40B3E0"/>
</g>
</g>
<defs>
<filter id="filter0_f_72_226" x="0.0968018" y="0.322754" width="72.4409" height="72.4409" filterUnits="userSpaceOnUse" color-interpolation-filters="sRGB">
<feFlood flood-opacity="0" result="BackgroundImageFix"/>
<feBlend mode="normal" in="SourceGraphic" in2="BackgroundImageFix" result="shape"/>
<feGaussianBlur stdDeviation="8.5" result="effect1_foregroundBlur_72_226"/>
</filter>
<filter id="filter1_f_72_226" x="-14.1539" y="-12.0063" width="100.942" height="99.4316" filterUnits="userSpaceOnUse" color-interpolation-filters="sRGB">
<feFlood flood-opacity="0" result="BackgroundImageFix"/>
<feBlend mode="normal" in="SourceGraphic" in2="BackgroundImageFix" result="shape"/>
<feGaussianBlur stdDeviation="10.5" result="effect1_foregroundBlur_72_226"/>
</filter>
<filter id="filter2_f_72_226" x="-17.1827" y="-21.8496" width="106.301" height="104.653" filterUnits="userSpaceOnUse" color-interpolation-filters="sRGB">
<feFlood flood-opacity="0" result="BackgroundImageFix"/>
<feBlend mode="normal" in="SourceGraphic" in2="BackgroundImageFix" result="shape"/>
<feGaussianBlur stdDeviation="10.5" result="effect1_foregroundBlur_72_226"/>
</filter>
</defs>
</svg>
